#!OML:ASF I:\Actors\actors\Patient Classification 1\Patient 1\Session 1\Subject1.ASF
:FULLY-SPECIFIED
:DEGREES
594
root -0.473283 17.5824 8.31188 7.99813 -0.256251 -7.33168
lowerback 3.49508 1.28498 6.96994
upperback -10.2244 2.531 0.632941
thorax -12.8445 0.55513 -3.5578
lowerneck -16.7296 -2.94652 -1.28235
upperneck 25.6226 -5.37523 5.34734
head 11.2821 -1.89754 1.38363
rclavicle -1.71949e-014 -6.75868e-015
rhumerus -38.323 12.8576 -99.6185
rradius 46.1496
rwrist 26.7943
rhand 1.26231 -28.1633
rfingers 7.12502
rthumb 26.7989 -776.285
lclavicle -1.71949e-014 -6.75868e-015
lhumerus -31.4999 -4.26151 95.6052
lradius 34.1311
lwrist -15.2926
lhand -14.3491 -11.188
lfingers 7.12502
lthumb 11.7925 18.46
rfemur -0.488537 26.282 24.9997
rtibia 1.04183
rfoot -12.6263 -28.9521
rtoes 4.21702
lfemur 7.09831 -41.9144 -15.3364
ltibia -4.53661
lfoot -19.4998 50.7762
ltoes 10.2334
595
root -0.473483 17.5817 8.33207 7.99791 -0.140485 -7.22119
lowerback 3.11113 1.28645 6.98415
upperback -10.4817 2.50691 0.566232
thorax -12.9103 0.53043 -3.62563
lowerneck -16.245 -2.93287 -1.43502
upperneck 26.0172 -5.34558 5.37814
head 11.339 -1.89639 1.4341
rclavicle 2.68359e-015 -1.11319e-014
rhumerus -36.9846 8.72896 -97.6928
rradius 41.5157
rwrist 28.3514
rhand -2.26458 -28.4912
rfingers 7.12502
rthumb 23.4196 -777.086
lclavicle 2.68359e-015 -1.11319e-014
lhumerus -30.0621 2.58274 92.967
lradius 29.6604
lwrist -16.7347
lhand -17.8393 -11.1891
lfingers 7.12502
lthumb 8.4254 18.6228
rfemur -0.191217 26.6871 25.008
rtibia 0.758685
rfoot -12.6088 -29.5008
rtoes 4.15591
lfemur 7.22327 -42.1775 -15.5579
ltibia -4.5327
lfoot -19.6872 50.8908
ltoes 10.5172
596
root -0.476335 17.5781 8.33952 7.89986 -0.252657 -6.96999
lowerback 3.04682 1.32439 6.7922
upperback -10.732 2.53735 0.474757
thorax -13.1645 0.543201 -3.625
lowerneck -15.827 -2.89223 -1.58371
upperneck 26.4969 -5.29581 5.44453
head 11.4422 -1.87861 1.50038
rclavicle 1.49089e-015 1.27222e-014
rhumerus -35.8493 4.31398 -95.5695
rradius 36.9174
rwrist 30.5636
rhand -2.95349 -30.2234
rfingers 7.12502
rthumb 22.7586 -778.901
lclavicle 1.49089e-015 1.27222e-014
lhumerus -29.2352 9.49378 90.044
lradius 25.6289
lwrist -18.2343
lhand -21.2595 -11.0789
lfingers 7.12502
lthumb 5.12375 18.8392
rfemur 0.0163568 27.1898 24.8179
rtibia 0.683864
rfoot -12.6814 -29.9205
rtoes 4.25502
lfemur 7.50096 -42.4917 -16.0488
ltibia -4.51773
lfoot -20.0928 51.2258
ltoes 10.8499
597
root -0.479334 17.5732 8.37629 8.00512 0.0688625 -7.31906
lowerback 2.23345 1.25252 7.28097
upperback -10.9398 2.43176 0.551032
thorax -12.9135 0.454304 -3.77312
lowerneck -15.3745 -2.80641 -1.52859
upperneck 26.8346 -5.15282 5.24999
head 11.4658 -1.83482 1.44864
rclavicle -7.15625e-015 3.57812e-014
rhumerus -34.9032 -0.410352 -93.1768
rradius 32.3631
rwrist 33.48
rhand -2.94303 -32.0009
rfingers 7.12502
rthumb 22.7686 -780.677
lclavicle -7.15625e-015 3.57812e-014
lhumerus -29.1216 15.9922 86.8444
lradius 22.285
lwrist -19.915
lhand -24.7068 -10.2282
lfingers 7.12502
lthumb 1.79476 19.744
rfemur 0.334482 27.3033 25.3924
rtibia 0.359205
rfoot -12.8136 -30.2913
rtoes 4.61507
lfemur 7.58972 -42.535 -15.6486
ltibia -4.71055
lfoot -19.6677 51.1601
ltoes 10.174
598
root -0.48376 17.5681 8.40303 7.98517 0.0895925 -7.45404
lowerback 1.77492 1.21332 7.43766
upperback -11.1228 2.36542 0.615247
thorax -12.8557 0.409439 -3.76825
lowerneck -15.1016 -2.70166 -1.45371
upperneck 27.3399 -4.99257 5.03755
head 11.5891 -1.77686 1.38861
rclavicle 8.94531e-015 -3.26007e-014
rhumerus -34.2339 -5.70181 -90.2919
rradius 27.9395
rwrist 37.5886
rhand -2.80193 -32.6215
rfingers 7.12502
rthumb 22.904 -781.281
lclavicle 8.94531e-015 -3.26007e-014
lhumerus -29.7739 21.6311 83.441
lradius 19.7579
lwrist -22.1076
lhand -26.9739 -8.73023
lfingers 7.12502
lthumb -0.394892 21.2491
rfemur 0.607009 27.4634 25.6881
rtibia 0.217731
rfoot -12.9225 -30.4422
rtoes 4.91811
lfemur 7.9945 -42.8373 -15.7585
ltibia -4.87966
lfoot -19.9325 51.4589
ltoes 10.357
599
root -0.489562 17.5644 8.42399 7.87677 -0.0395464 -7.40689
lowerback 1.55396 1.19903 7.37529
upperback -11.2846 2.32954 0.630323
thorax -12.9171 0.393616 -3.70736
lowerneck -15.0079 -2.64559 -1.59519
upperneck 27.9335 -4.90221 5.0116
head 11.7995 -1.74527 1.42331
rclavicle 1.88845e-015 -1.19271e-015
rhumerus -34.1104 -12.0633 -86.6003
rradius 23.8864
rwrist 43.3224
rhand -2.42893 -32.5377
rfingers 7.12502
rthumb 23.2619 -781.153
lclavicle 1.88845e-015 -1.19271e-015
lhumerus -31.0787 25.7268 80.1136
lradius 18.1349
lwrist -24.6287
lhand -27.4247 -6.93114
lfingers 7.12502
lthumb -0.830252 23.047
rfemur 0.817454 27.4662 25.7392
rtibia 0.234807
rfoot -12.9965 -30.3211
rtoes 4.86405
lfemur 8.55189 -43.2533 -16.2322
ltibia -4.96838
lfoot -20.615 51.9096
ltoes 10.9485
